<svg xmlns="http://www.w3.org/2000/svg" width="600" height="600" viewBox="0 0 600 600"><g fill="none" stroke="#ffffff" stroke-width="0.3" opacity="0.025"><line x1="0.0" y1="0.0" x2="0.0" y2="600.0"></line><line x1="40.0" y1="0.0" x2="40.0" y2="600.0"></line><line x1="80.0" y1="0.0" x2="80.0" y2="600.0"></line><line x1="120.0" y1="0.0" x2="120.0" y2="600.0"></line><line x1="160.0" y1="0.0" x2="160.0" y2="600.0"></line><line x1="200.0" y1="0.0" x2="200.0" y2="600.0"></line><line x1="240.0" y1="0.0" x2="240.0" y2="600.0"></line><line x1="280.0" y1="0.0" x2="280.0" y2="600.0"></line><line x1="320.0" y1="0.0" x2="320.0" y2="600.0"></line><line x1="360.0" y1="0.0" x2="360.0" y2="600.0"></line><line x1="400.0" y1="0.0" x2="400.0" y2="600.0"></line><line x1="440.0" y1="0.0" x2="440.0" y2="600.0"></line><line x1="480.0" y1="0.0" x2="480.0" y2="600.0"></line><line x1="520.0" y1="0.0" x2="520.0" y2="600.0"></line><line x1="560.0" y1="0.0" x2="560.0" y2="600.0"></line><line x1="600.0" y1="0.0" x2="600.0" y2="600.0"></line><line x1="0.0" y1="0.0" x2="600.0" y2="0.0"></line><line x1="0.0" y1="40.0" x2="600.0" y2="40.0"></line><line x1="0.0" y1="80.0" x2="600.0" y2="80.0"></line><line x1="0.0" y1="120.0" x2="600.0" y2="120.0"></line><line x1="0.0" y1="160.0" x2="600.0" y2="160.0"></line><line x1="0.0" y1="200.0" x2="600.0" y2="200.0"></line><line x1="0.0" y1="240.0" x2="600.0" y2="240.0"></line><line x1="0.0" y1="280.0" x2="600.0" y2="280.0"></line><line x1="0.0" y1="320.0" x2="600.0" y2="320.0"></line><line x1="0.0" y1="360.0" x2="600.0" y2="360.0"></line><line x1="0.0" y1="400.0" x2="600.0" y2="400.0"></line><line x1="0.0" y1="440.0" x2="600.0" y2="440.0"></line><line x1="0.0" y1="480.0" x2="600.0" y2="480.0"></line><line x1="0.0" y1="520.0" x2="600.0" y2="520.0"></line><line x1="0.0" y1="560.0" x2="600.0" y2="560.0"></line><line x1="0.0" y1="600.0" x2="600.0" y2="600.0"></line></g><g fill="none" stroke="#ffffff" stroke-width="0.6" opacity="0.04"><line x1="0.0" y1="0.0" x2="0.0" y2="600.0"></line><line x1="120.0" y1="0.0" x2="120.0" y2="600.0"></line><line x1="240.0" y1="0.0" x2="240.0" y2="600.0"></line><line x1="360.0" y1="0.0" x2="360.0" y2="600.0"></line><line x1="480.0" y1="0.0" x2="480.0" y2="600.0"></line><line x1="600.0" y1="0.0" x2="600.0" y2="600.0"></line><line x1="0.0" y1="0.0" x2="600.0" y2="0.0"></line><line x1="0.0" y1="120.0" x2="600.0" y2="120.0"></line><line x1="0.0" y1="240.0" x2="600.0" y2="240.0"></line><line x1="0.0" y1="360.0" x2="600.0" y2="360.0"></line><line x1="0.0" y1="480.0" x2="600.0" y2="480.0"></line><line x1="0.0" y1="600.0" x2="600.0" y2="600.0"></line></g><g fill="none" stroke="#ffffff" stroke-width="0.7" opacity="0.05"><polygon points="300.0,275.0 323.8,292.3 314.7,320.2 285.3,320.2 276.2,292.3" fill="none"></polygon><polygon points="326.5,263.6 342.8,313.9 300.0,345.0 257.2,313.9 273.5,263.6" fill="none"></polygon><polygon points="300.0,230.0 366.6,278.4 341.1,356.6 258.9,356.6 233.4,278.4" fill="none"></polygon><polygon points="358.8,219.1 395.1,330.9 300.0,400.0 204.9,330.9 241.2,219.1" fill="none"></polygon><polygon points="300.0,160.0 433.1,256.7 382.3,413.3 217.7,413.3 166.9,256.7" fill="none"></polygon><polygon points="411.7,146.3 480.7,358.7 300.0,490.0 119.3,358.7 188.3,146.3" fill="none"></polygon><polygon points="300.0,50.0 537.8,222.7 446.9,502.3 153.1,502.3 62.2,222.7" fill="none"></polygon><line x1="300.0" y1="230.0" x2="341.1" y2="356.6"></line><line x1="366.6" y1="278.4" x2="258.9" y2="356.6"></line><line x1="341.1" y1="356.6" x2="233.4" y2="278.4"></line><line x1="258.9" y1="356.6" x2="300.0" y2="230.0"></line><line x1="233.4" y1="278.4" x2="366.6" y2="278.4"></line><line x1="300.0" y1="160.0" x2="382.3" y2="413.3"></line><line x1="433.1" y1="256.7" x2="217.7" y2="413.3"></line><line x1="382.3" y1="413.3" x2="166.9" y2="256.7"></line><line x1="217.7" y1="413.3" x2="300.0" y2="160.0"></line><line x1="166.9" y1="256.7" x2="433.1" y2="256.7"></line><line x1="300.0" y1="50.0" x2="446.9" y2="502.3"></line><line x1="537.8" y1="222.7" x2="153.1" y2="502.3"></line><line x1="446.9" y1="502.3" x2="62.2" y2="222.7"></line><line x1="153.1" y1="502.3" x2="300.0" y2="50.0"></line><line x1="62.2" y1="222.7" x2="537.8" y2="222.7"></line></g><g fill="none" stroke="#ffffff" stroke-width="0.5" opacity="0.04"><circle cx="300.0" cy="300.0" r="20.0" fill="none"></circle><circle cx="300.0" cy="300.0" r="40.0" fill="none"></circle><circle cx="300.0" cy="300.0" r="65.0" fill="none"></circle><circle cx="300.0" cy="300.0" r="95.0" fill="none"></circle><circle cx="300.0" cy="300.0" r="130.0" fill="none"></circle><circle cx="300.0" cy="300.0" r="175.0" fill="none"></circle><circle cx="300.0" cy="300.0" r="230.0" fill="none"></circle><circle cx="300.0" cy="300.0" r="290.0" fill="none"></circle><line x1="300.0" y1="0.0" x2="300.0" y2="600.0"></line><line x1="0.0" y1="300.0" x2="600.0" y2="300.0"></line><line x1="0.0" y1="0.0" x2="600.0" y2="600.0"></line><line x1="600.0" y1="0.0" x2="0.0" y2="600.0"></line><line x1="300.0" y1="300.0" x2="600.0" y2="300.0"></line><line x1="300.0" y1="300.0" x2="559.8" y2="450.0"></line><line x1="300.0" y1="300.0" x2="450.0" y2="559.8"></line><line x1="300.0" y1="300.0" x2="300.0" y2="600.0"></line><line x1="300.0" y1="300.0" x2="150.0" y2="559.8"></line><line x1="300.0" y1="300.0" x2="40.2" y2="450.0"></line><line x1="300.0" y1="300.0" x2="0.0" y2="300.0"></line><line x1="300.0" y1="300.0" x2="40.2" y2="150.0"></line><line x1="300.0" y1="300.0" x2="150.0" y2="40.2"></line><line x1="300.0" y1="300.0" x2="300.0" y2="0.0"></line><line x1="300.0" y1="300.0" x2="450.0" y2="40.2"></line><line x1="300.0" y1="300.0" x2="559.8" y2="150.0"></line></g><g fill="none" stroke="#ffffff" stroke-width="0.4" opacity="0.03"><rect x="40.0" y="40.0" width="80.0" height="60.0" fill="none"></rect><line x1="80.0" y1="40.0" x2="80.0" y2="100.0"></line><rect x="160.0" y="30.0" width="70.0" height="90.0" fill="none"></rect><line x1="195.0" y1="30.0" x2="195.0" y2="120.0"></line><line x1="160.0" y1="75.0" x2="230.0" y2="75.0"></line><rect x="350.0" y="50.0" width="100.0" height="70.0" fill="none"></rect><line x1="400.0" y1="50.0" x2="400.0" y2="120.0"></line><line x1="350.0" y1="85.0" x2="450.0" y2="85.0"></line><rect x="450.0" y="150.0" width="80.0" height="100.0" fill="none"></rect><line x1="490.0" y1="150.0" x2="490.0" y2="250.0"></line><line x1="450.0" y1="200.0" x2="530.0" y2="200.0"></line><rect x="30.0" y="200.0" width="100.0" height="80.0" fill="none"></rect><line x1="80.0" y1="200.0" x2="80.0" y2="280.0"></line><line x1="30.0" y1="240.0" x2="130.0" y2="240.0"></line><rect x="200.0" y="180.0" width="60.0" height="120.0" fill="none"></rect><line x1="200.0" y1="240.0" x2="260.0" y2="240.0"></line><rect x="380.0" y="250.0" width="90.0" height="80.0" fill="none"></rect><line x1="425.0" y1="250.0" x2="425.0" y2="330.0"></line><line x1="380.0" y1="290.0" x2="470.0" y2="290.0"></line><rect x="100.0" y="380.0" width="120.0" height="90.0" fill="none"></rect><line x1="160.0" y1="380.0" x2="160.0" y2="470.0"></line><line x1="100.0" y1="425.0" x2="220.0" y2="425.0"></line><rect x="300.0" y="400.0" width="80.0" height="70.0" fill="none"></rect><line x1="340.0" y1="400.0" x2="340.0" y2="470.0"></line><line x1="300.0" y1="435.0" x2="380.0" y2="435.0"></line><rect x="480.0" y="380.0" width="90.0" height="100.0" fill="none"></rect><line x1="525.0" y1="380.0" x2="525.0" y2="480.0"></line><line x1="480.0" y1="430.0" x2="570.0" y2="430.0"></line><rect x="50.0" y="480.0" width="110.0" height="80.0" fill="none"></rect><line x1="105.0" y1="480.0" x2="105.0" y2="560.0"></line><line x1="50.0" y1="520.0" x2="160.0" y2="520.0"></line><rect x="250.0" y="500.0" width="100.0" height="60.0" fill="none"></rect><line x1="300.0" y1="500.0" x2="300.0" y2="560.0"></line><rect x="420.0" y="480.0" width="70.0" height="90.0" fill="none"></rect><line x1="455.0" y1="480.0" x2="455.0" y2="570.0"></line><line x1="420.0" y1="525.0" x2="490.0" y2="525.0"></line><line x1="120.0" y1="70.0" x2="160.0" y2="70.0"></line><line x1="230.0" y1="120.0" x2="350.0" y2="120.0"></line><line x1="450.0" y1="200.0" x2="450.0" y2="250.0"></line><line x1="130.0" y1="280.0" x2="200.0" y2="240.0"></line><line x1="260.0" y1="300.0" x2="380.0" y2="290.0"></line><line x1="220.0" y1="470.0" x2="300.0" y2="440.0"></line></g><g fill="none" stroke="#ffffff" stroke-width="0.5" opacity="0.035"><line x1="56.0" y1="60.0" x2="64.0" y2="60.0"></line><line x1="60.0" y1="56.0" x2="60.0" y2="64.0"></line><line x1="56.0" y1="180.0" x2="64.0" y2="180.0"></line><line x1="60.0" y1="176.0" x2="60.0" y2="184.0"></line><line x1="56.0" y1="300.0" x2="64.0" y2="300.0"></line><line x1="60.0" y1="296.0" x2="60.0" y2="304.0"></line><line x1="56.0" y1="420.0" x2="64.0" y2="420.0"></line><line x1="60.0" y1="416.0" x2="60.0" y2="424.0"></line><line x1="56.0" y1="540.0" x2="64.0" y2="540.0"></line><line x1="60.0" y1="536.0" x2="60.0" y2="544.0"></line><line x1="176.0" y1="60.0" x2="184.0" y2="60.0"></line><line x1="180.0" y1="56.0" x2="180.0" y2="64.0"></line><line x1="176.0" y1="180.0" x2="184.0" y2="180.0"></line><line x1="180.0" y1="176.0" x2="180.0" y2="184.0"></line><line x1="176.0" y1="300.0" x2="184.0" y2="300.0"></line><line x1="180.0" y1="296.0" x2="180.0" y2="304.0"></line><line x1="176.0" y1="420.0" x2="184.0" y2="420.0"></line><line x1="180.0" y1="416.0" x2="180.0" y2="424.0"></line><line x1="176.0" y1="540.0" x2="184.0" y2="540.0"></line><line x1="180.0" y1="536.0" x2="180.0" y2="544.0"></line><line x1="296.0" y1="60.0" x2="304.0" y2="60.0"></line><line x1="300.0" y1="56.0" x2="300.0" y2="64.0"></line><line x1="296.0" y1="180.0" x2="304.0" y2="180.0"></line><line x1="300.0" y1="176.0" x2="300.0" y2="184.0"></line><line x1="296.0" y1="300.0" x2="304.0" y2="300.0"></line><line x1="300.0" y1="296.0" x2="300.0" y2="304.0"></line><line x1="296.0" y1="420.0" x2="304.0" y2="420.0"></line><line x1="300.0" y1="416.0" x2="300.0" y2="424.0"></line><line x1="296.0" y1="540.0" x2="304.0" y2="540.0"></line><line x1="300.0" y1="536.0" x2="300.0" y2="544.0"></line><line x1="416.0" y1="60.0" x2="424.0" y2="60.0"></line><line x1="420.0" y1="56.0" x2="420.0" y2="64.0"></line><line x1="416.0" y1="180.0" x2="424.0" y2="180.0"></line><line x1="420.0" y1="176.0" x2="420.0" y2="184.0"></line><line x1="416.0" y1="300.0" x2="424.0" y2="300.0"></line><line x1="420.0" y1="296.0" x2="420.0" y2="304.0"></line><line x1="416.0" y1="420.0" x2="424.0" y2="420.0"></line><line x1="420.0" y1="416.0" x2="420.0" y2="424.0"></line><line x1="416.0" y1="540.0" x2="424.0" y2="540.0"></line><line x1="420.0" y1="536.0" x2="420.0" y2="544.0"></line><line x1="536.0" y1="60.0" x2="544.0" y2="60.0"></line><line x1="540.0" y1="56.0" x2="540.0" y2="64.0"></line><line x1="536.0" y1="180.0" x2="544.0" y2="180.0"></line><line x1="540.0" y1="176.0" x2="540.0" y2="184.0"></line><line x1="536.0" y1="300.0" x2="544.0" y2="300.0"></line><line x1="540.0" y1="296.0" x2="540.0" y2="304.0"></line><line x1="536.0" y1="420.0" x2="544.0" y2="420.0"></line><line x1="540.0" y1="416.0" x2="540.0" y2="424.0"></line><line x1="536.0" y1="540.0" x2="544.0" y2="540.0"></line><line x1="540.0" y1="536.0" x2="540.0" y2="544.0"></line></g><g fill="none" stroke="#ffffff" stroke-width="0.5" opacity="0.04"><circle cx="0.0" cy="0.0" r="30.0" fill="none"></circle><circle cx="0.0" cy="0.0" r="50.0" fill="none"></circle><polygon points="0.0,-40.0 38.0,-12.4 23.5,32.4 -23.5,32.4 -38.0,-12.4" fill="none"></polygon><circle cx="600.0" cy="0.0" r="30.0" fill="none"></circle><circle cx="600.0" cy="0.0" r="50.0" fill="none"></circle><polygon points="600.0,-40.0 638.0,-12.4 623.5,32.4 576.5,32.4 562.0,-12.4" fill="none"></polygon><circle cx="0.0" cy="600.0" r="30.0" fill="none"></circle><circle cx="0.0" cy="600.0" r="50.0" fill="none"></circle><polygon points="0.0,560.0 38.0,587.6 23.5,632.4 -23.5,632.4 -38.0,587.6" fill="none"></polygon><circle cx="600.0" cy="600.0" r="30.0" fill="none"></circle><circle cx="600.0" cy="600.0" r="50.0" fill="none"></circle><polygon points="600.0,560.0 638.0,587.6 623.5,632.4 576.5,632.4 562.0,587.6" fill="none"></polygon><circle cx="0.0" cy="300.0" r="25.0" fill="none"></circle><line x1="-18.0" y1="300.0" x2="18.0" y2="300.0"></line><line x1="0.0" y1="282.0" x2="0.0" y2="318.0"></line><circle cx="600.0" cy="300.0" r="25.0" fill="none"></circle><line x1="582.0" y1="300.0" x2="618.0" y2="300.0"></line><line x1="600.0" y1="282.0" x2="600.0" y2="318.0"></line><circle cx="300.0" cy="0.0" r="25.0" fill="none"></circle><line x1="282.0" y1="0.0" x2="318.0" y2="0.0"></line><line x1="300.0" y1="-18.0" x2="300.0" y2="18.0"></line><circle cx="300.0" cy="600.0" r="25.0" fill="none"></circle><line x1="282.0" y1="600.0" x2="318.0" y2="600.0"></line><line x1="300.0" y1="582.0" x2="300.0" y2="618.0"></line></g></svg>